<?xml version="1.0" encoding="UTF-8" standalone="no"?>
<svg xmlns="http://www.w3.org/2000/svg" width="200" height="200" viewBox="0 0 200 200">
  <!-- Background circle -->
  <circle cx="100" cy="100" r="90" fill="#3498db" />

  <!-- Inner circle (lighter blue) -->
  <circle cx="100" cy="100" r="75" fill="#5dade2" />

  <!-- File icons -->
  <g transform="translate(50, 50) scale(0.8)">
    <!-- First file (original) -->
    <rect x="10" y="10" width="60" height="80" rx="5" ry="5" fill="#ecf0f1" stroke="#34495e" stroke-width="2" />
    <line x1="25" y1="30" x2="55" y2="30" stroke="#34495e" stroke-width="2" />
    <line x1="25" y1="45" x2="55" y2="45" stroke="#34495e" stroke-width="2" />
    <line x1="25" y1="60" x2="55" y2="60" stroke="#34495e" stroke-width="2" />

    <!-- Second file (duplicate) -->
    <rect x="60" y="30" width="60" height="80" rx="5" ry="5" fill="#ecf0f1" stroke="#34495e" stroke-width="2" />
    <line x1="75" y1="50" x2="105" y2="50" stroke="#34495e" stroke-width="2" />
    <line x1="75" y1="65" x2="105" y2="65" stroke="#34495e" stroke-width="2" />
    <line x1="75" y1="80" x2="105" y2="80" stroke="#34495e" stroke-width="2" />

    <!-- Link symbol between files -->
    <path d="M 50,70 C 60,60 70,60 80,70" stroke="#e74c3c" stroke-width="4" fill="none" />
    <circle cx="50" cy="70" r="5" fill="#e74c3c" />
    <circle cx="80" cy="70" r="5" fill="#e74c3c" />
  </g>

  <!-- Text "dedup" -->
  <text x="100" y="160" font-family="Arial, sans-serif" font-size="28" font-weight="bold" text-anchor="middle" fill="#ffffff">dedup</text>
</svg>
